<?xml version="1.0" standalone="no"?><!DOCTYPE svg PUBLIC "-//W3C//DTD SVG 1.1//EN" "http://www.w3.org/Graphics/SVG/1.1/DTD/svg11.dtd"><svg t="1688721316392" class="icon" viewBox="0 0 1024 1024" version="1.1" xmlns="http://www.w3.org/2000/svg" p-id="4374" xmlns:xlink="http://www.w3.org/1999/xlink" width="200" height="200"><path d="M685.568 143.872c-38.4 0-75.264 9.728-108.544 28.672-25.088 13.824-54.272 12.288-78.336-2.048-35.328-20.992-75.264-33.28-117.76-33.28-145.92 0-270.336 145.92-264.704 323.584 5.12 155.648 66.56 237.568 337.92 387.072 33.28 17.92 73.216 20.992 109.568 8.192 170.496-63.488 351.232-184.32 386.56-388.096 31.232-176.128-118.784-324.096-264.704-324.096z" fill="#F79E3C" p-id="4375"></path><path d="M445.44 889.344c-18.944 0-36.864-3.072-50.176-10.24C130.048 733.184 55.808 647.68 50.176 481.28 47.616 384 81.92 290.816 145.408 225.792c51.2-52.736 116.224-81.408 182.784-81.408 43.52 0 84.992 11.776 124.416 34.816 20.992 12.288 45.568 13.312 66.048 2.048 35.328-19.968 73.728-30.208 114.688-30.208 78.336 0 157.696 39.424 212.992 105.984 55.808 67.072 78.336 150.016 62.976 233.472-16.896 96.768-61.44 179.2-132.608 244.736-58.368 54.272-135.168 98.304-234.496 135.168-25.088 9.728-62.976 18.944-96.768 18.944zM328.192 169.472C268.288 169.472 209.92 195.584 163.84 243.2 104.96 303.616 72.704 390.144 75.776 480.256c5.12 145.92 55.808 224.768 331.776 376.32 28.16 15.36 91.136 3.072 125.44-9.728 210.432-78.336 322.048-193.024 351.232-360.96 13.824-76.288-6.144-151.552-57.344-212.992-50.688-60.416-122.88-96.768-193.536-96.768-36.352 0-70.656 9.216-102.4 27.136-28.672 15.36-62.464 14.848-91.136-2.56-35.84-20.48-73.216-31.232-111.616-31.232z" fill="#4F3838" p-id="4376"></path><path d="M266.24 724.992c-3.584 0-7.168-1.536-9.728-4.608-93.696-113.152-58.368-236.032-27.136-344.064 3.072-10.24 6.144-20.992 8.704-31.232 37.376-135.68 146.944-143.872 199.68-147.968 4.608-0.512 10.24-0.512 14.336-1.024 0.512-3.072 2.048-6.144 4.608-8.192 5.12-4.608 13.312-3.584 17.92 1.536 6.656 8.192 6.144 15.36 4.096 19.456-4.608 11.264-16.896 12.288-38.912 13.824-50.688 3.584-144.384 10.752-177.152 129.024-3.072 10.24-5.632 20.992-8.704 31.232-30.72 107.52-62.976 218.112 22.528 321.024 4.608 5.12 3.584 13.312-1.536 17.92-3.072 2.048-6.144 3.072-8.704 3.072z" fill="#4F3838" p-id="4377"></path></svg>